<svg xmlns="http://www.w3.org/2000/svg" width="250" height="250"><title>design-ill</title><desc>Created with Sketch.</desc><g fill="none"><g><g transform="translate(54 59)"><path id="Shape" fill="#EF5F44" fill-rule="nonzero" d="M100.13 121.07L71 120.9l-29.15.17-2.28 7.45c-.28.92-.1 1.92.46 2.7.57.76 1.47 1.22 2.42 1.22H99.5c.96 0 1.86-.46 2.43-1.23.57-.76.74-1.76.46-2.68l-2.27-7.45zM100.13 121.04l-3.2-9.97c-.4-1.26-1.55-2.1-2.86-2.1H47.95c-1.3 0-2.47.84-2.87 2.1l-3.18 9.97 29.13-.16 29.1.16z"/><path id="Shape" fill="#fff" fill-rule="nonzero" stroke="#231F20" stroke-width="1.92" d="M70.98 9.6c0 20.17-36.24 59.34-36.24 59.34l15.72 40.04 20.52-.18 20.52.18 15.73-40.04S70.98 29.74 70.98 9.6z"/><ellipse id="Oval" cx="69.644" cy="71.916" fill="#E5E3E4" fill-rule="nonzero" rx="5.043" ry="5.064"/><ellipse id="Oval" cx="70.981" cy="71.756" fill="#000" fill-rule="nonzero" rx="3.719" ry="3.734"/><ellipse id="Oval" cx="70.873" cy="9.412" fill="#EF5F44" fill-rule="nonzero" rx="8.921" ry="8.958"/><path id="Shape" stroke="#231F20" stroke-width="1.92" d="M70.98 71.76V9.56"/><path id="Shape" fill="#CE3828" fill-rule="nonzero" d="M52.16 109.77c-.12-.05-.25-.05-.37 0-1.04.3-3.78.2-4.72 5.2 0 0-1.05 3.76 3.24 3.67 4.28-.08 45.57 0 45.57 0s3.4.1 2.26-3.24l1.8 5.64h-58.3l3.2-9.97s.4-2.3 5.4-2.1c1.96.06 2.47.06 2.47.06l-.57.74zM50.57 120.35c-.13-.06-.28-.06-.4 0-1.13.33-4.13.22-5.14 5.45 0 0-1.15 3.97 3.53 3.88 4.68-.1 49.77 0 49.77 0s3.73.08 2.48-3.42l1.97 5.95H39.1l2.93-10.4s1-2.52 6.5-2.3c2.1.08 2.68.08 2.68.08l-.63.77z"/><path id="Shape" stroke="#231F20" stroke-width="1.92" d="M99.97 121.07l-29.14-.16-29.13.17-2.3 7.45c-.27.92-.1 1.92.46 2.7.57.76 1.47 1.22 2.43 1.22h57.04c.95 0 1.85-.46 2.42-1.23.57-.76.74-1.76.46-2.68l-2.25-7.45zM99.97 121.04l-3.18-9.97c-.4-1.26-1.57-2.1-2.88-2.1H47.8c-1.32 0-2.48.84-2.88 2.1l-3.2 9.97 29.16-.16 29.1.16z"/><path id="Shape" fill="#E5E3E4" fill-rule="nonzero" d="M70 17.64s0 .1 0 .27c-.3 2.7-6.62 24.6-22.4 46.7-2.5 3.5-3.4 7.92-2.46 12.14l5.1 22.8c.93 4.14 4.6 7.08 8.83 7.08H91.7l-.8 2.2-40.67-.27-16-39.62S64.75 36.08 70 17.63z"/><path id="Shape" stroke="#231F20" stroke-width="1.92" d="M70.98 9.6c0 20.17-36.24 59.34-36.24 59.34l15.72 40.04 20.52-.18 20.52.18 15.73-40.04s-34.35-37.12-36.17-57.7c-.05-.58-.08-1.13-.08-1.65z"/><path stroke="#231F20" stroke-width="1.92" d="M141.45 9.97L.52 9.5M.38 64.63S6.72 9.6 70.98 9.6M141.62 64.63S135.3 9.6 71.02 9.6" stroke-linecap="round"/><ellipse cx="70.987" cy="9.591" fill="#000" fill-rule="nonzero" rx="3.184" ry="3.197"/></g></g></g></svg>