<svg xmlns="http://www.w3.org/2000/svg" width="250" height="250"><title>develop-ill</title><desc>Created with Sketch.</desc><g fill="none"><g><g transform="translate(59 67)"><rect id="Rectangle-path" width="130.086" height="117.334" x=".432" y=".528" fill="#fff" fill-rule="nonzero" stroke="#231F20" stroke-width="2.045" rx="10.404"/><rect id="Rectangle-path" width="130.086" height="117.334" x=".432" y=".528" fill="#fff" fill-rule="nonzero" stroke="#231F20" stroke-width="2.045" rx="10.404"/><path id="Shape" fill="#E5E3E4" fill-rule="nonzero" d="M125.88 114H16.58c-2.75 0-5.4-1.1-7.35-3.07-1.95-1.97-3.04-4.63-3.04-7.4V7.12c0-2.27.72-4.47 2.08-6.28C3.66 2.03.43 6.2.43 11v96.4c0 5.78 4.66 10.46 10.4 10.46h109.3c3.27 0 6.35-1.56 8.3-4.2-.83.22-1.7.33-2.55.34z"/><path id="Shape" fill="#EF5F44" fill-rule="nonzero" d="M120.12.53H10.82C5.1.53.43 5.2.43 11v16.56h130.1V11c0-5.8-4.65-10.47-10.4-10.47z"/><path id="Shape" fill="#CE3828" fill-rule="nonzero" d="M13.33 22.15c-4.02 0-7.27-3.28-7.27-7.32V5.57c0-1.48.32-2.95.93-4.3C3.03 2.87.43 6.7.43 10.97v16.6h130.08v-5.42H13.32z"/><path id="Shape" stroke="#231F20" stroke-width="2.045" d="M.03 27.27h130.5"/><ellipse id="Oval" cx="115.748" cy="14.761" fill="#CE3828" fill-rule="nonzero" rx="4.419" ry="4.228"/><ellipse id="Oval" cx="98.617" cy="14.761" fill="#CE3828" fill-rule="nonzero" rx="4.419" ry="4.228"/><ellipse id="Oval" cx="81.098" cy="14.761" fill="#CE3828" fill-rule="nonzero" rx="4.419" ry="4.228"/><ellipse id="Oval" cx="117.187" cy="14.761" fill="#000" fill-rule="nonzero" rx="4.204" ry="4.228"/><ellipse id="Oval" cx="100.057" cy="14.761" fill="#000" fill-rule="nonzero" rx="4.204" ry="4.228"/><ellipse cx="82.537" cy="14.761" fill="#000" fill-rule="nonzero" rx="4.204" ry="4.228"/><path id="Shape" stroke="#CE3828" stroke-width="3.6" d="M9.44 14.83h14.4" stroke-linecap="round"/><path id="Shape" stroke="#231F20" stroke-width="2.16" d="M10.47 14.76h14.4" stroke-linecap="round"/><rect id="Rectangle-path" width="34.074" height="3.431" x="48.13" y="72.712" fill="#E5E3E4" fill-rule="nonzero" transform="rotate(-80.74 65.167 74.428)" rx="1.613"/><path id="Shape" fill="#E5E3E4" fill-rule="nonzero" d="M46.07 73.92L56.14 63.8c.67-.68.67-1.77 0-2.44-.66-.67-1.74-.67-2.4 0L42.46 72.68c-.67.7-.67 1.78 0 2.47l11.23 11.3c.43.46 1.07.64 1.67.5.6-.17 1.07-.64 1.23-1.25.15-.6-.03-1.25-.5-1.67l-10.03-10.1zM84.7 73.95L74.63 84.08c-.67.67-.67 1.76 0 2.43.66.68 1.74.68 2.4 0l11.24-11.3c.67-.68.67-1.77 0-2.46l-11.23-11.3c-.43-.46-1.07-.64-1.67-.5-.6.17-1.07.64-1.23 1.25-.15.6.03 1.24.5 1.66l10.06 10.1z"/><rect id="Rectangle-path" width="34.074" height="3.431" x="47.885" y="69.818" fill="#000" fill-rule="nonzero" transform="rotate(-80.74 64.922 71.534)" rx="1.613"/><path fill="#000" fill-rule="nonzero" d="M45.84 71.02L55.92 60.9c.67-.68.67-1.77 0-2.44-.67-.66-1.75-.66-2.4 0L42.23 69.8c-.67.67-.67 1.77 0 2.46l11.23 11.3c.43.45 1.07.64 1.67.48.6-.15 1.07-.63 1.23-1.23.15-.6-.03-1.24-.5-1.67l-10.03-10.1zM84.47 71.05L74.4 81.2c-.68.66-.68 1.74 0 2.4.66.68 1.73.68 2.4 0l11.24-11.3c.66-.67.66-1.77 0-2.46L76.8 58.54c-.67-.63-1.72-.6-2.37.04-.65.66-.67 1.7-.04 2.4l10.07 10.07z"/><rect width="130.086" height="117.334" x=".432" y=".528" stroke="#231F20" stroke-width="2.045" rx="10.404"/></g></g></g></svg>