<svg xmlns="http://www.w3.org/2000/svg" width="30" height="45"><title>Glucode Logo</title><desc>Created with Sketch.</desc><g fill="none" class="logo-svg"><g fill="#000"><path d="M21.27 27.53c-.18 3.43-2.4 5.36-5.2 5.82-.16.02-.57 0-.64 0C6.33 32.8-.72 24.68.06 15.3.8 6.48 8.22-.3 17.02 0c5.1.2 9.58 2.72 12.46 6.53l-6.7 6.33c-1.15-1.94-3.13-3.32-5.46-3.6-4.56-.55-8.53 3.26-8.24 7.9.24 3.8 3.28 6.88 7.1 7 1.38.06 2.7-.28 3.82-.9.05.07.1.14.17.23.62 1.06 1 2.28 1.1 3.57 0 .15 0 .46 0 .46zm.03-5c4.74.65 8.5 4.76 8.16 9.62-.5 7.35-6.63 12.95-13.92 12.85v-9.4c3.95-.27 7.2-3.43 7.48-7.5.15-2.1-.5-4.05-1.72-5.58z" class="logo-svg"/></g></g></svg>