<svg xmlns="http://www.w3.org/2000/svg" width="250" height="250"><title>strategise-ill</title><desc>Created with Sketch.</desc><g fill="none"><g><g transform="translate(56 63)"><ellipse id="Oval" cx="62.586" cy="63.077" fill="#EF5F44" fill-rule="nonzero" rx="62.534" ry="62.603"/><path id="Rectangle-path" fill="#CE3828" fill-rule="nonzero" d="M100.33 94.36l1-1.3 10.67 8.06-.98 1.3z"/><ellipse id="Oval" cx="62.586" cy="63.077" stroke="#231F20" stroke-width="1.92" rx="62.534" ry="62.603"/><ellipse id="Oval" cx="58.656" cy="63.154" fill="#CE3828" fill-rule="nonzero" rx="48.3" ry="48.353"/><ellipse id="Oval" cx="62.624" cy="63.038" fill="#fff" fill-rule="nonzero" stroke="#231F20" stroke-width="1.92" rx="48.3" ry="48.353"/><path id="Rectangle-path" fill="#E5E3E4" fill-rule="nonzero" d="M89.4 86.15l1-1.3 10.68 8.06-.98 1.32z"/><ellipse id="Oval" cx="62.624" cy="63.038" stroke="#231F20" stroke-width="1.92" rx="48.3" ry="48.353"/><ellipse id="Oval" cx="59.57" cy="63.179" fill="#E5E3E4" fill-rule="nonzero" rx="34.826" ry="34.864"/><ellipse id="Oval" cx="62.624" cy="63.038" fill="#EF5F44" fill-rule="nonzero" rx="34.826" ry="34.864"/><ellipse id="Oval" cx="59.353" cy="63.179" fill="#CE3828" fill-rule="nonzero" rx="21.422" ry="21.446"/><path id="Rectangle-path" fill="#CE3828" fill-rule="nonzero" d="M77.97 77.36l.98-1.3 10.7 8.05-1 1.32z"/><ellipse id="Oval" cx="62.624" cy="63.038" stroke="#231F20" stroke-width="1.92" rx="34.826" ry="34.864"/><ellipse id="Oval" cx="62.624" cy="63.038" fill="#fff" fill-rule="nonzero" stroke="#231F20" stroke-width="1.92" rx="21.422" ry="21.446"/><ellipse id="Oval" cx="62.624" cy="63.038" stroke="#231F20" stroke-width="1.92" rx="21.422" ry="21.446"/><path fill="#E5E3E4" fill-rule="nonzero" d="M70.25 71.23l.98-1.3 7.84 5.9-1 1.3z"/><ellipse id="Oval" cx="62.624" cy="65.418" fill="#E5E3E4" fill-rule="nonzero" rx="11.142" ry="11.155"/><ellipse id="Oval" cx="62.624" cy="63.038" fill="#EF5F44" fill-rule="nonzero" rx="11.142" ry="11.155"/><path id="Shape" fill="#CE3828" fill-rule="nonzero" d="M61.7 62.44s-1 1.63 1.17 3.23c2.15 1.6 6.83 5.16 6.83 5.16l1-1-7.9-5.95s-1.2-.72-1.1-1.44z"/><ellipse cx="62.624" cy="63.038" stroke="#231F20" stroke-width="1.92" rx="11.142" ry="11.155"/><path id="Shape" stroke="#231F20" stroke-width="1.92" d="M125.16 109.93l-62.53-47.4" stroke-linecap="round" stroke-linejoin="round"/><path id="Shape" fill="#fff" fill-rule="nonzero" stroke="#231F20" stroke-width="1.92" d="M101.6 92.1l12.14-1.76 23.96 17.1-11.42 3.13zM101.5 92.23l1.7 12.16 23.64 18.08-.56-11.9z"/><path id="Shape" fill="#E5E3E4" fill-rule="nonzero" d="M103.95 92.8l5.7-.92 21.66 16.37-4.83 1.33zM102.88 98.28l-.9-5.22 24.1 18.4-.1 4.15z"/><path id="Shape" stroke="#231F20" stroke-width="1.92" d="M101.6 92.1l12.14-1.76 23.96 17.1-11.42 3.13zM101.5 92.23l1.7 12.16 23.64 18.08-.56-11.9z"/><path fill="#CE3828" fill-rule="nonzero" d="M103.74 108.9l-4.55-4-.78-8 2.4-2.63 1.5 10.65 3.12 2.38z"/></g></g></g></svg>